HIERARCHY
ROOT Pelvis
{
	OFFSET 0.000000 0.000000 0.000000
	CHANNELS 6 Xposition Yposition Zposition Xrotation Yrotation Zrotation
	JOINT LeftUpLeg_virtual
	{
		OFFSET 0.000000 0.000000 0.000000
		CHANNELS 3 Xrotation Yrotation Zrotation
		JOINT LeftUpLeg
		{
			OFFSET 18.735201 -5.666702 -4.541200
			CHANNELS 3 Xrotation Yrotation Zrotation
			JOINT LeftLeg
			{
				OFFSET -0.021200 -31.938179 0.493100
				CHANNELS 3 Xrotation Yrotation Zrotation
				JOINT LeftFoot
				{
					OFFSET 0.021200 -31.938179 -4.336299
					CHANNELS 3 Xrotation Yrotation Zrotation
					JOINT LeftToeBase
					{
						OFFSET 0.943001 -26.722000 15.023500
						CHANNELS 3 Xrotation Yrotation Zrotation
						End Site
						{
							OFFSET 0 0 0
						}
					}
				}
			}
		}
	}
	JOINT RightUpLeg_virtual
	{
		OFFSET 0.000000 0.000000 0.000000
		CHANNELS 3 Xrotation Yrotation Zrotation
		JOINT RightUpLeg
		{
			OFFSET -18.735201 -5.666702 -4.541200
			CHANNELS 3 Xrotation Yrotation Zrotation
			JOINT RightLeg
			{
				OFFSET 0.018946 -31.938133 0.493100
				CHANNELS 3 Xrotation Yrotation Zrotation
				JOINT RightFoot
				{
					OFFSET -0.018946 -31.938126 -4.336299
					CHANNELS 3 Xrotation Yrotation Zrotation
					JOINT RightToeBase
					{
						OFFSET -0.943001 -26.722004 15.023500
						CHANNELS 3 Xrotation Yrotation Zrotation
						End Site
						{
							OFFSET 0 0 0
						}
					}
				}
			}
		}
	}
	JOINT Hips_virtual
	{
		OFFSET 0.000000 0.000000 0.000000
		CHANNELS 3 Xrotation Yrotation Zrotation
		JOINT Hips
		{
			OFFSET -0.000000 -0.000000 -0.000000
			CHANNELS 3 Xrotation Yrotation Zrotation
			JOINT Spine
			{
				OFFSET 0.000000 10.199997 -0.299500
				CHANNELS 3 Xrotation Yrotation Zrotation
				JOINT Spine1
				{
					OFFSET 0.000000 11.900002 -1.516600
					CHANNELS 3 Xrotation Yrotation Zrotation
					JOINT Spine2
					{
						OFFSET 0.000000 13.600006 -2.842500
						CHANNELS 3 Xrotation Yrotation Zrotation
						JOINT Neck_virtual
						{
							OFFSET 0.000000 0.000000 0.000000
							CHANNELS 3 Xrotation Yrotation Zrotation
							JOINT Neck
							{
								OFFSET 0.000000 9.624100 -2.890100
								CHANNELS 3 Xrotation Yrotation Zrotation
								JOINT Head
								{
									OFFSET 0.000000 14.068802 -1.351900
									CHANNELS 3 Xrotation Yrotation Zrotation
									End Site
									{
										OFFSET 0 0 0
									}
								}
							}
						}
						JOINT LeftShoulder_virtual
						{
							OFFSET 0.000000 0.000000 0.000000
							CHANNELS 3 Xrotation Yrotation Zrotation
							JOINT LeftShoulder
							{
								OFFSET 15.263000 10.923401 -0.547700
								CHANNELS 3 Xrotation Yrotation Zrotation
								JOINT LeftArm
								{
									OFFSET 25.438599 -2.830597 -13.032500
									CHANNELS 3 Xrotation Yrotation Zrotation
									JOINT LeftForeArm
									{
										OFFSET 29.960503 0.000000 0.000000
										CHANNELS 3 Xrotation Yrotation Zrotation
										JOINT LeftHand
										{
											OFFSET 27.849251 0.000000 0.000000
											CHANNELS 3 Xrotation Yrotation Zrotation
											End Site
											{
												OFFSET 0 0 0
											}
										}
									}
								}
							}
						}
						JOINT RightShoulder_virtual
						{
							OFFSET 0.000000 0.000000 0.000000
							CHANNELS 3 Xrotation Yrotation Zrotation
							JOINT RightShoulder
							{
								OFFSET -15.263000 10.923401 -0.547700
								CHANNELS 3 Xrotation Yrotation Zrotation
								JOINT RightArm
								{
									OFFSET -25.438599 -2.830597 -13.032500
									CHANNELS 3 Xrotation Yrotation Zrotation
									JOINT RightForeArm
									{
										OFFSET -29.960503 0.000000 0.000000
										CHANNELS 3 Xrotation Yrotation Zrotation
										JOINT RightHand
										{
											OFFSET -27.849251 0.000000 0.000000
											CHANNELS 3 Xrotation Yrotation Zrotation
											End Site
											{
												OFFSET 0 0 0
											}
										}
									}
								}
							}
						}
					}
				}
			}
		}
	}
}
MOTION
Frames: 8
Frame Time: 0.03333333
-23.958900 89.431396 -10.862640 0.000000 0.000000 0.000000 -168.467586 -52.607524 -162.653114 -103.003043 -11.201007 10.061905 78.167827 -8.848783 -28.628581 51.505664 -5.362639 -21.228704 0.000000 0.000000 0.000000 -168.271382 -52.132945 -163.739824 -19.864818 29.372443 -6.221408 31.814318 18.041050 -2.228595 -15.930429 10.727300 7.280532 0.000000 0.000000 0.000000 -169.374539 -53.990921 -163.777664 -2.206222 1.875359 -3.662275 19.936576 1.801412 0.979726 6.399705 -0.518966 -0.265528 0.000000 0.000000 0.000000 6.745662 -0.931769 -0.973731 0.943868 7.408302 0.309702 0.000000 0.000000 0.000000 8.211813 0.029159 -0.871311 -2.513356 -19.565616 10.313619 -41.163474 -40.943299 -38.738449 -96.121204 -34.950621 -89.253429 0.000000 0.000000 0.000000 7.317420 -0.245231 -1.024890 -7.962419 22.952668 8.513854 -49.049737 7.586766 27.403856 115.186154 47.004382 -113.482896 0.000000 0.000000 0.000000 
-25.302631 89.901993 -11.913315 0.000000 0.000000 0.000000 -169.456925 -48.741500 -162.884439 -106.237561 -11.050459 9.827204 74.879316 -9.023077 -29.591535 48.895507 -8.076951 -26.827938 0.000000 0.000000 0.000000 -168.982363 -48.022145 -163.750316 -17.500536 32.954269 -6.894426 28.180092 18.846664 -1.923328 -12.558281 11.961393 7.187925 0.000000 0.000000 0.000000 -170.194422 -50.264510 -163.949019 -2.288963 2.528539 -3.866201 20.561648 2.044730 0.066809 6.879397 -0.292019 -0.722416 0.000000 0.000000 0.000000 7.311309 -0.749088 -1.461473 1.059277 7.614259 0.452042 0.000000 0.000000 0.000000 8.763508 0.199947 -1.207421 -1.632547 -19.171948 15.583659 -51.807142 -39.029712 -41.918657 -95.520920 -35.950776 -89.096915 0.000000 0.000000 0.000000 7.559888 -0.055504 -1.511303 -6.965280 23.872790 4.638060 -57.115647 7.089371 26.180861 117.429899 47.222839 -116.171887 0.000000 0.000000 0.000000 
-26.354065 90.462196 -13.080788 0.000000 0.000000 0.000000 -170.142799 -45.524611 -162.549773 -108.353875 -11.409438 10.093055 72.708791 -9.412159 -30.607748 42.975632 -10.188785 -33.006404 0.000000 0.000000 0.000000 -169.362559 -44.496872 -163.153903 -15.634079 35.829079 -8.105147 26.091440 19.293556 -1.789243 -10.811594 12.953918 7.292818 0.000000 0.000000 0.000000 -170.684815 -47.287189 -163.556147 -2.084290 3.076213 -3.921566 21.225171 2.464470 -1.013598 7.488384 -0.107047 -1.091757 0.000000 0.000000 0.000000 7.893738 -0.657540 -1.857308 1.257727 7.824483 0.557489 0.000000 0.000000 0.000000 9.314604 0.265310 -1.443187 -0.880057 -18.612431 20.782495 -61.582379 -37.718422 -45.422527 -94.695997 -37.162229 -88.826351 0.000000 0.000000 0.000000 7.789104 0.062520 -1.926905 -5.904818 24.638552 0.592428 -64.056690 5.579191 23.777762 119.681225 47.700610 -118.641042 0.000000 0.000000 0.000000 
-27.247730 91.022469 -13.850662 0.000000 0.000000 0.000000 -170.214748 -43.476944 -161.527581 -109.293484 -12.106772 10.942333 70.924575 -9.613085 -32.013964 35.874237 -10.732085 -39.052395 0.000000 0.000000 0.000000 -169.007799 -42.389373 -161.740642 -14.724435 37.592562 -9.638264 26.648427 19.221122 -1.924860 -10.860985 13.420849 7.645916 0.000000 0.000000 0.000000 -170.522161 -45.658087 -162.385439 -1.928852 2.969600 -3.883005 21.807793 2.967110 -2.057635 8.140414 0.000541 -1.341543 0.000000 0.000000 0.000000 8.455220 -0.644545 -2.116218 1.498476 8.046896 0.615573 0.000000 0.000000 0.000000 9.857599 0.262106 -1.545140 -0.368987 -17.692029 25.657268 -70.142320 -37.019243 -49.217489 -93.407406 -38.545391 -88.252642 0.000000 0.000000 0.000000 7.956876 0.105509 -2.205236 -4.849795 25.077711 -3.319775 -69.659262 3.027503 20.155094 122.786010 48.158568 -121.766550 0.000000 0.000000 0.000000 
-27.942890 91.484169 -14.280209 0.000000 0.000000 0.000000 -169.357573 -43.429444 -159.694618 -108.897019 -13.207935 11.737597 69.328947 -9.336512 -33.666375 30.480330 -9.617564 -43.584513 0.000000 0.000000 0.000000 -167.781370 -42.257335 -159.639266 -14.677093 38.699036 -10.981035 29.717436 19.098312 -2.651381 -11.934388 13.557005 8.973134 0.000000 0.000000 0.000000 -169.449835 -45.758794 -160.375601 -1.835453 2.584854 -3.750462 22.136071 3.530988 -2.883921 8.721888 -0.001872 -1.502402 0.000000 0.000000 0.000000 8.868139 -0.696847 -2.278275 1.752239 8.270126 0.632561 0.000000 0.000000 0.000000 10.359180 0.204841 -1.577292 -0.107214 -16.401810 29.935374 -77.345206 -36.460393 -53.191276 -91.205572 -39.927421 -86.931178 0.000000 0.000000 0.000000 8.028736 0.064508 -2.344666 -3.859643 25.119247 -6.790723 -74.134388 -0.137581 15.947214 126.908344 48.331119 -125.809448 0.000000 0.000000 0.000000 
-28.485447 91.679649 -14.168312 0.000000 0.000000 0.000000 -167.276182 -45.903564 -156.801404 -107.454407 -14.722365 12.058769 67.804490 -8.774868 -35.279928 28.675026 -7.678656 -46.029072 0.000000 0.000000 0.000000 -165.374576 -44.282510 -156.472776 -14.791605 39.719449 -11.837796 33.828933 19.221383 -3.835202 -13.390296 13.432359 11.897876 0.000000 0.000000 0.000000 -166.939809 -47.966137 -156.848232 -1.265845 1.404509 -3.475217 22.130936 4.034571 -3.328755 9.125537 -0.086687 -1.607193 0.000000 0.000000 0.000000 9.085611 -0.810573 -2.383818 1.998951 8.488933 0.617847 0.000000 0.000000 0.000000 10.771724 0.106397 -1.599538 -0.077224 -14.838335 33.454629 -82.994783 -35.733685 -56.864853 -87.943166 -41.114594 -84.631699 0.000000 0.000000 0.000000 7.981611 -0.041383 -2.384679 -3.016476 24.823491 -9.507960 -77.570240 -3.302146 11.926788 131.599317 48.079460 -130.367793 0.000000 0.000000 0.000000 
-28.987968 91.419350 -13.478573 0.000000 0.000000 0.000000 -163.949621 -50.176260 -152.533929 -105.941241 -16.350310 12.454081 66.400258 -8.325071 -36.736340 30.330633 -5.920626 -46.907998 0.000000 0.000000 0.000000 -161.540367 -48.208886 -151.631279 -14.750302 40.378883 -12.509635 38.132359 19.269145 -5.208482 -14.869896 12.741055 15.931473 0.000000 0.000000 0.000000 -163.023802 -51.574567 -151.786242 -0.747055 0.305158 -3.211011 21.917683 4.366579 -3.396025 9.264294 -0.234511 -1.711024 0.000000 0.000000 0.000000 9.119677 -0.968866 -2.502027 2.199963 8.675285 0.625913 0.000000 0.000000 0.000000 11.014902 -0.056196 -1.706030 -0.143390 -13.353430 36.293282 -87.251411 -35.050437 -60.094572 -83.922937 -41.811751 -81.462075 0.000000 0.000000 0.000000 7.857859 -0.181947 -2.402532 -2.388819 24.283100 -11.275539 -80.120796 -5.931487 8.495271 135.882939 47.777846 -134.584028 0.000000 0.000000 0.000000 
-29.559052 90.828590 -12.555534 0.000000 0.000000 0.000000 -159.198650 -55.546350 -146.433532 -105.603481 -18.044853 13.280418 66.018949 -8.447404 -37.802799 34.827384 -4.979268 -46.643635 0.000000 0.000000 0.000000 -156.162112 -53.092379 -144.666562 -14.713669 40.228899 -13.101270 41.876686 18.782995 -6.387261 -16.316569 11.081912 19.477645 0.000000 0.000000 0.000000 -157.674425 -55.864667 -144.958266 0.093794 -0.614516 -3.021348 21.696729 4.447385 -3.259673 9.180900 -0.441666 -1.852923 0.000000 0.000000 0.000000 8.955768 -1.188757 -2.653974 2.354820 8.815941 0.675216 0.000000 0.000000 0.000000 11.024093 -0.328599 -1.933119 -0.142143 -12.377643 38.464610 -90.718163 -34.643109 -62.912189 -79.838976 -41.900065 -77.958399 0.000000 0.000000 0.000000 7.788254 -0.354019 -2.451506 -1.985150 23.539660 -12.087882 -82.068247 -7.855054 5.693796 139.091010 47.866560 -137.804367 0.000000 0.000000 0.000000 
